HIERARCHY
ROOT Hips
{
	OFFSET 0 0 0
	CHANNELS 6 Xposition Yposition Zposition Yrotation Xrotation Zrotation
	JOINT Spine
	{
		OFFSET -0 8.38078 -2.67137
		CHANNELS 3 Yrotation Xrotation Zrotation
		JOINT Spine1
		{
			OFFSET -0 10.2701 0
			CHANNELS 3 Yrotation Xrotation Zrotation
			JOINT Spine2
			{
				OFFSET -0 10.2701 0
				CHANNELS 3 Yrotation Xrotation Zrotation
				JOINT Spine3
				{
					OFFSET -0 10.2701 0
					CHANNELS 3 Yrotation Xrotation Zrotation
					JOINT Neck
					{
						OFFSET -0 16.9472 3.67137
						CHANNELS 3 Yrotation Xrotation Zrotation
						JOINT Head
						{
							OFFSET -0 10.476 0
							CHANNELS 3 Yrotation Xrotation Zrotation
							End Site
							{
								OFFSET -0 15 0
							}
						}
					}
					JOINT LeftShoulder
					{
						OFFSET 1.74599 4.87741 3.49199
						CHANNELS 3 Yrotation Xrotation Zrotation
						JOINT LeftArm
						{
							OFFSET 19.9293 0 0
							CHANNELS 3 Yrotation Xrotation Zrotation
							JOINT LeftForeArm
							{
								OFFSET 25.2203 0 0
								CHANNELS 3 Yrotation Xrotation Zrotation
								JOINT LeftHand
								{
									OFFSET 22.6882 0 0
									CHANNELS 3 Yrotation Xrotation Zrotation
									End Site
									{
										OFFSET 15 0 0
									}
								}
							}
						}
					}
					JOINT RightShoulder
					{
						OFFSET -1.74599 4.87741 3.49199
						CHANNELS 3 Yrotation Xrotation Zrotation
						JOINT RightArm
						{
							OFFSET -19.9293 0 0
							CHANNELS 3 Yrotation Xrotation Zrotation
							JOINT RightForeArm
							{
								OFFSET -25.2203 0 0
								CHANNELS 3 Yrotation Xrotation Zrotation
								JOINT RightHand
								{
									OFFSET -22.6882 0 0
									CHANNELS 3 Yrotation Xrotation Zrotation
									End Site
									{
										OFFSET -15 0 0
									}
								}
							}
						}
					}
				}
			}
		}
	}
	JOINT LeftUpLeg
	{
		OFFSET 10.476 -3.49199 2
		CHANNELS 3 Yrotation Xrotation Zrotation
		JOINT LeftLeg
		{
			OFFSET -0 -42.329 2.44439
			CHANNELS 3 Yrotation Xrotation Zrotation
			JOINT LeftFoot
			{
				OFFSET -0 -39.8175 -2.44439
				CHANNELS 3 Yrotation Xrotation Zrotation
				JOINT LeftToeBase
				{
					OFFSET -0 -6.74129 15.714
					CHANNELS 3 Yrotation Xrotation Zrotation
					End Site
					{
						OFFSET -0 0 5
					}
				}
			}
		}
	}
	JOINT RightUpLeg
	{
		OFFSET -10.476 -3.49199 2
		CHANNELS 3 Yrotation Xrotation Zrotation
		JOINT RightLeg
		{
			OFFSET -0 -42.329 2.44439
			CHANNELS 3 Yrotation Xrotation Zrotation
			JOINT RightFoot
			{
				OFFSET -0 -39.8175 -2.44439
				CHANNELS 3 Yrotation Xrotation Zrotation
				JOINT RightToeBase
				{
					OFFSET -0 -6.74129 15.714
					CHANNELS 3 Yrotation Xrotation Zrotation
					End Site
					{
						OFFSET -0 0 5
					}
				}
			}
		}
	}
}
MOTION
Frames: 11
Frame Time: 0.00833333
172.751978 90.139844 24.629921 14.456349 0.947942 -4.993496 2.941641 7.287881 4.790164 3.328778 5.794754 1.917779 1.079448 3.357824 -1.153080 -0.840559 2.566410 -1.461387 -7.910177 5.691908 -6.300256 -2.436530 8.106831 3.449558 13.994881 6.609301 3.639995 -32.636258 -11.076381 -48.691284 -38.740579 13.615111 24.700517 6.472051 -28.119164 -1.726450 -10.751471 2.751855 -9.588649 34.871330 -6.446402 35.505534 69.246493 18.806647 -18.334514 -3.652994 -5.230642 -4.750403 25.984804 -23.334208 -19.361720 0.000000 -2.162014 0.000000 3.987593 -6.007835 -12.604051 0.000000 -19.986488 0.000000 -12.284391 -11.809972 3.236739 0.000000 83.651717 0.000000 -17.854964 -4.767315 -16.416845 0.000000 -7.374702 0.000000
172.603674 89.958240 26.730865 15.754602 1.189748 -5.387228 2.532736 7.797896 4.658207 3.047786 6.126542 1.997259 0.988313 3.421019 -0.876793 -0.846919 2.486672 -1.352880 -7.962944 5.196324 -6.278048 -2.500200 7.816839 3.530433 13.850689 6.756426 3.688413 -35.985383 -13.730649 -46.927037 -39.740269 13.972420 26.267602 6.108929 -27.002834 -2.239741 -10.669562 3.034285 -9.650266 34.646457 -6.028103 35.195041 70.051388 19.172565 -18.509308 -4.046543 -5.630654 -5.624587 25.069125 -23.644963 -18.940374 0.000000 -3.868777 0.000000 4.156262 -6.007227 -11.966044 0.000000 -20.150457 0.000000 -12.043896 -15.948741 3.682652 0.000000 86.753146 0.000000 -17.585374 -6.086683 -16.970873 0.000000 -7.458796 0.000000
172.394946 89.717462 28.798291 16.959992 1.550020 -5.774969 2.121864 8.236972 4.409512 2.762416 6.407819 2.035421 0.914206 3.510233 -0.648814 -0.828414 2.626221 -0.930719 -7.983438 4.457255 -6.471100 -2.548184 7.474969 3.636202 13.455418 6.731372 3.471713 -39.432602 -16.157537 -44.794556 -41.095717 13.396535 27.694379 5.233127 -25.790697 -1.984756 -10.435003 3.236162 -9.832041 34.496286 -5.457968 34.858430 70.539703 19.444398 -19.112615 -4.284046 -5.653360 -6.391290 24.410615 -24.399758 -18.644816 0.000000 -4.590618 0.000000 4.538457 -6.312004 -10.453723 0.000000 -20.412562 0.000000 -11.608450 -20.331661 4.069521 0.000000 89.097928 0.000000 -16.604403 -7.114420 -17.268214 0.000000 -7.287935 0.000000
172.085425 89.402893 30.839417 18.130361 1.986109 -6.188399 1.700919 8.794745 3.971829 2.433937 6.677322 2.039087 0.911292 3.590660 -0.236329 -0.706907 2.779907 -0.596898 -8.003979 3.375888 -6.362269 -2.642411 7.279372 3.598540 12.885599 6.362256 3.363812 -42.818362 -18.536164 -42.541298 -42.088489 13.613992 29.036526 4.356347 -24.942448 -1.663543 -10.270288 3.217192 -9.903196 34.082369 -5.188797 34.613362 71.178908 19.732963 -19.171935 -4.502941 -5.525974 -7.022449 24.021193 -25.557875 -18.458565 0.000000 -4.333926 0.000000 5.173514 -6.674669 -8.681975 0.000000 -21.018629 0.000000 -11.044962 -24.827826 4.438566 180.000000 89.476621 180.000000 -15.609790 -7.713150 -17.405170 0.000000 -7.714456 0.000000
171.703821 89.020050 32.902234 19.326293 2.434605 -6.572779 1.198956 9.342749 3.423438 2.004898 7.033738 1.974321 0.915266 3.762424 0.105253 -0.522961 2.883313 -0.196169 -8.020597 2.097443 -6.056554 -2.742511 7.262672 3.565414 12.133851 5.577296 3.398900 -46.064753 -20.238959 -40.238477 -43.390153 13.623585 30.580514 3.704335 -23.763713 -1.871105 -10.100100 3.172543 -9.879713 33.730217 -5.077712 34.349967 71.738751 20.208695 -19.151006 -4.972843 -5.642462 -7.339001 23.505153 -27.063182 -18.111188 0.000000 -3.125558 0.000000 6.244342 -7.039512 -8.411661 0.000000 -21.081182 0.000000 -10.452512 -29.279334 4.599196 180.000000 88.992107 180.000000 -14.543296 -8.236205 -17.236258 0.000000 -7.487015 0.000000
171.220886 88.592572 35.006766 20.415324 2.831798 -7.118534 0.906097 9.994358 2.803306 1.789290 7.358141 1.947056 0.691066 3.985210 0.593352 -0.491241 2.936380 0.219856 -7.674705 0.567727 -5.707891 -2.679069 7.475588 3.564355 11.331096 4.551388 3.550530 -48.704125 -22.026290 -38.043658 -44.798431 14.302415 31.649658 3.028143 -23.155921 -2.134818 -9.792135 3.098095 -9.778134 33.524629 -4.903220 34.086269 71.880334 20.798459 -19.183388 -5.039967 -6.038555 -7.985712 22.936242 -28.896872 -17.374774 0.000000 -1.052112 0.000000 7.197512 -7.452707 -8.865917 0.000000 -21.018160 0.000000 -9.593464 -33.458544 4.907395 180.000000 89.632959 180.000000 -13.964530 -8.627324 -17.013377 0.000000 -7.510613 0.000000
170.704126 88.105408 37.143799 21.587059 3.301558 -7.802570 0.575923 10.599540 2.378345 1.497733 7.721813 1.908296 0.410985 4.272045 0.949205 -0.458627 2.928943 0.481600 -7.484696 -0.916941 -4.896766 -2.731747 7.575282 3.285086 10.566274 3.380522 3.882582 -51.466051 -23.528109 -35.413041 -46.432411 14.555151 32.290509 2.506374 -22.021073 -2.204449 -9.508552 2.910726 -9.480998 33.617801 -4.574327 33.884207 71.859011 21.205848 -19.282640 -5.084484 -6.137648 -8.169780 21.835432 -31.123494 -16.271708 0.000000 1.719807 0.000000 8.124775 -7.987241 -8.795796 0.000000 -21.045326 0.000000 -8.711266 -37.416209 5.159159 0.000000 88.658619 0.000000 -13.774828 -8.972350 -16.634154 0.000000 -7.434797 0.000000
170.172827 87.563434 39.331351 22.903927 3.836415 -8.534151 0.232008 11.072285 2.095594 1.150138 8.203566 1.815336 0.025002 4.608491 1.112499 -0.540325 2.927990 0.758027 -7.067294 -2.739195 -3.943427 -2.657804 8.140406 3.252919 9.731333 1.888328 4.471636 -53.889729 -24.889857 -32.965923 -48.062876 14.818539 32.826227 1.903320 -20.665846 -2.429401 -9.187147 2.646780 -9.034173 33.778118 -4.472961 33.700011 71.740897 21.694319 -19.118178 -5.284565 -6.356138 -7.943454 20.651490 -33.514119 -15.142332 0.000000 5.109891 0.000000 8.807473 -8.792913 -8.157241 0.000000 -20.716897 0.000000 -8.204264 -41.022305 5.185823 0.000000 85.936577 0.000000 -13.804730 -9.121022 -16.405756 0.000000 -7.869889 0.000000
169.658618 86.964056 41.593506 24.288458 4.310626 -9.346160 -0.148375 11.571461 1.895981 0.742425 8.704182 1.719543 -0.331611 4.816470 1.266139 -0.613537 2.893336 1.039286 -6.548061 -4.253960 -3.053991 -2.529915 8.532422 3.224388 8.652958 0.610169 5.169573 -56.387051 -25.606066 -30.292445 -49.426697 14.897789 33.586970 1.407699 -19.587777 -2.744483 -8.943632 2.427790 -8.592227 34.278406 -4.186874 33.498936 71.357870 21.840066 -18.767414 -5.432509 -6.089090 -8.340331 19.916673 -35.898214 -14.140570 0.000000 9.221929 0.000000 9.002302 -10.016231 -8.058791 0.000000 -20.507885 0.000000 -7.653635 -44.058985 5.126645 0.000000 82.197247 0.000000 -13.768975 -9.134757 -16.337745 0.000000 -7.809935 0.000000
169.133105 86.319458 43.906586 25.786398 4.922021 -10.160501 -0.664735 11.895224 1.596045 0.248253 9.067924 1.636325 -0.743908 5.138728 1.400052 -0.672644 3.067396 1.311274 -5.967275 -5.803807 -1.956085 -2.387623 8.925677 3.088620 7.462143 -0.894714 5.883997 -58.623785 -26.252640 -27.638609 -50.245380 15.484844 34.129370 1.126119 -19.150306 -2.826291 -8.554935 1.992918 -8.088615 35.131265 -3.457930 33.363470 70.531635 22.117856 -18.822088 -5.420516 -6.254552 -8.213736 19.190568 -38.356270 -13.226476 0.000000 13.475628 0.000000 8.983445 -10.956033 -7.647004 0.000000 -20.744187 0.000000 -7.338769 -46.671255 4.990730 0.000000 77.459348 0.000000 -13.243317 -8.926522 -16.555282 0.000000 -7.331540 0.000000
168.559607 85.639258 46.180685 27.442442 6.148889 -10.760357 -1.372214 11.888013 0.961780 -0.498112 9.199957 1.386184 -1.250366 5.284369 1.633637 -0.764300 3.068270 1.872343 -5.273280 -6.726013 -0.954133 -2.169273 9.130879 2.972541 6.109566 -2.312503 6.732529 -60.227270 -26.280092 -25.658810 -51.031969 15.741262 35.019456 0.905876 -18.393816 -3.157479 -7.901857 1.745312 -7.588429 36.090386 -2.673202 32.979805 69.618976 21.858600 -18.287203 -5.350465 -5.561572 -8.672907 18.991012 -41.712926 -13.176240 0.000000 18.602270 0.000000 8.181317 -11.062281 -4.773255 0.000000 -21.696018 0.000000 -6.871454 -49.447192 4.312208 0.000000 71.923527 0.000000 -13.116956 -8.390835 -16.109602 0.000000 -7.112612 0.000000
